<svg xmlns="http://www.w3.org/2000/svg" viewBox="0 0 122.4 122.9"><style>@media (prefers-color-scheme:dark){path{fill:#fff}}</style><path d="M64.4 58.6a67.9 67.9 0 0 1 14 19.2c2.7 6.3 3 11.6.1 14.5a7.7 7.7 0 0 1-5.5 2L22 117c-12.8 6.4-19 7.4-21.3 4-2-3.3.4-10.1 4.8-19.9l23.1-52c.2-1.9.9-3.5 2-4.6 3-3 8.3-2.6 14.6.2a67.6 67.6 0 0 1 19.2 13.9zm51.4 30.3a3.9 3.9 0 1 1-5.5 5.5 3.9 3.9 0 0 1 5.5-5.5zm3.8-18.1a2 2 0 0 1 .7 3.9c-5.3 1-9.8-2.3-14.4-5.6-6-4.4-12.4-9-20.4-.8a2 2 0 0 1-2.8-2.7c10.4-10.7 18.2-5.1 25.6.3 3.9 2.8 7.6 5.6 11.3 4.9zm.9-59.3a2 2 0 1 1 0 4c-9.2 0-11.6 7.3-14.1 15-3 9.1-6 18.7-18.5 20.8a104.5 104.5 0 0 1-7.3 1 2 2 0 1 1-.3-4 48 48 0 0 0 7-1c10-1.6 12.7-10 15.3-18 3-9.1 5.8-17.8 17.9-17.9zM50.2 1.6a2 2 0 0 1 4 .8c-.7 3.4 1.7 7 4.1 10.8 5.1 7.8 10.5 16-3 26.7a2 2 0 0 1-2.5-3.1c10.7-8.4 6.3-15.1 2.2-21.4-2.9-4.5-5.7-8.8-4.8-13.8zm45.2 6L91.6 15l5.6 5.7-8-1-3.8 7-1.2-7.9-8-1.4 7.2-3.7-1.2-8.2 5.8 5.9 7.4-3.9zm-18 24.3a3.9 3.9 0 1 1-5.5 5.5 3.9 3.9 0 0 1 5.5-5.5zM71.7 5.2a3.9 3.9 0 1 1-5.5 5.5 3.9 3.9 0 0 1 5.5-5.5zM46.6 24.5A3.9 3.9 0 1 1 41 30a3.9 3.9 0 0 1 5.5-5.5zm67 22.2a3.9 3.9 0 1 1-5.5 5.5 3.9 3.9 0 0 1 5.5-5.5zm-12.2 30-4.8 3 1.4 5.2-4.3-3.3-4.6 2.8 2-5-4.2-3.5 5.4.3 2.1-5.2 1.4 5.3 5.6.3zM32.4 62a78.4 78.4 0 0 0 25.2 36l10-4.5a67.9 67.9 0 0 1-22.8-15.3c-5.4-5.4-9.6-11-12.4-16.2zM43 104.4a95.2 95.2 0 0 1-22.4-30.1l-6.6 15A92.4 92.4 0 0 0 30.4 110l12.7-5.7zm-26 11.8a36 36 0 0 1-9.8-11.6c-3.4 7.6-5.2 12.8-4 14.7 1.1 1.7 5.2.9 13.8-3.1zm14.6-66.9v.3c-.1 1.4.2 3.2.8 5.2l1.2 3a65 65 0 0 0 13.3 18.3 64.9 64.9 0 0 0 21.7 14.6c1.5.4 2.8.7 4 .7h.3c1.5 0 2.7-.4 3.5-1.2 2-2 1.5-6-.8-11.2a65 65 0 0 0-13.3-18.3A64.9 64.9 0 0 0 44 47.4c-5.2-2.3-9.3-2.8-11.2-.8-.7.6-1 1.6-1.2 2.7z"/></svg>